<?xml version="1.0" encoding="iso-8859-1"?>
<!-- Generator: Adobe Illustrator 25.4.1, SVG Export Plug-In . SVG Version: 6.00 Build 0)  -->
<svg version="1.1" baseProfile="basic" id="Layer_1"
	 xmlns="http://www.w3.org/2000/svg" xmlns:xlink="http://www.w3.org/1999/xlink" x="0px" y="0px" viewBox="0 0 100 100"
	 xml:space="preserve">
<path style="fill:none;stroke:#000000;stroke-width:4;stroke-linecap:round;stroke-linejoin:round;stroke-miterlimit:10;" d="
	M16.297,70.364c0,0-1.862,11.061,5.832,12.303c7.694,1.243,51.685,2.664,56.498,0.38c4.813-2.284,5.345-9.029,5.345-9.029
	l-0.104-48.822c0.342-4.572-2.385-7.815-8.816-9.456l-51.21,0.937c0,0-6.186,0.453-7.25,7.212
	C15.529,30.648,16.297,70.364,16.297,70.364z"/>
<path style="fill-rule:evenodd;clip-rule:evenodd;" d="M34.575,30.846c-0.417,0.269-0.974,0.149-1.243-0.268
	c-0.269-0.417-0.149-0.974,0.268-1.243c0.417-0.269,0.974-0.149,1.243,0.268S34.992,30.577,34.575,30.846"/>
<path style="fill-rule:evenodd;clip-rule:evenodd;" d="M24.489,30.933c-0.417,0.269-0.974,0.149-1.243-0.268
	c-0.269-0.417-0.149-0.974,0.268-1.243c0.417-0.269,0.974-0.149,1.243,0.268C25.026,30.107,24.906,30.664,24.489,30.933"/>
<path style="fill-rule:evenodd;clip-rule:evenodd;" d="M31.484,23.553c-0.417,0.269-0.974,0.149-1.243-0.268
	c-0.269-0.417-0.149-0.974,0.268-1.243c0.417-0.269,0.974-0.149,1.243,0.268C32.021,22.728,31.901,23.285,31.484,23.553"/>
<line style="fill:none;stroke:#000000;stroke-width:2;stroke-linecap:round;stroke-linejoin:round;stroke-miterlimit:10;" x1="77.004" y1="75.491" x2="80.594" y2="79.914"/>
<line style="fill:none;stroke:#000000;stroke-width:2;stroke-linecap:round;stroke-linejoin:round;stroke-miterlimit:10;" x1="71.563" y1="78.478" x2="73.576" y2="82.901"/>
<line style="fill:none;stroke:#000000;stroke-width:2;stroke-linecap:round;stroke-linejoin:round;stroke-miterlimit:10;" x1="65.246" y1="79.001" x2="68.019" y2="83.148"/>
<line style="fill:none;stroke:#000000;stroke-width:2;stroke-linecap:round;stroke-linejoin:round;stroke-miterlimit:10;" x1="32.913" y1="83.381" x2="34.274" y2="78.769"/>
<line style="fill:none;stroke:#000000;stroke-width:2;stroke-linecap:round;stroke-linejoin:round;stroke-miterlimit:10;" x1="27.626" y1="82.874" x2="30.321" y2="77.115"/>
<line style="fill:none;stroke:#000000;stroke-width:2;stroke-linecap:round;stroke-linejoin:round;stroke-miterlimit:10;" x1="20.925" y1="83.395" x2="24.879" y2="79.029"/>
<line style="fill:none;stroke:#000000;stroke-width:2;stroke-linecap:round;stroke-linejoin:round;stroke-miterlimit:10;" x1="70.778" y1="33.21" x2="81.982" y2="27.889"/>
<line style="fill:none;stroke:#000000;stroke-width:2;stroke-linecap:round;stroke-linejoin:round;stroke-miterlimit:10;" x1="75.305" y1="36.143" x2="84.183" y2="32.402"/>
<line style="fill:none;stroke:#000000;stroke-width:2;stroke-linecap:round;stroke-linejoin:round;stroke-miterlimit:10;" x1="41.779" y1="18.081" x2="43.58" y2="26.336"/>
<line style="fill:none;stroke:#000000;stroke-width:2;stroke-linecap:round;stroke-linejoin:round;stroke-miterlimit:10;" x1="46.406" y1="16.266" x2="47.031" y2="22.868"/>
<line style="fill:none;stroke:#000000;stroke-width:2;stroke-linecap:round;stroke-linejoin:round;stroke-miterlimit:10;" x1="59.987" y1="16.254" x2="58.974" y2="22.258"/>
<line style="fill:none;stroke:#000000;stroke-width:2;stroke-linecap:round;stroke-linejoin:round;stroke-miterlimit:10;" x1="65.051" y1="16.191" x2="63.951" y2="21.027"/>
<line style="fill:none;stroke:#000000;stroke-width:2;stroke-linecap:round;stroke-linejoin:round;stroke-miterlimit:10;" x1="17.296" y1="36.342" x2="23.998" y2="42.111"/>
<line style="fill:none;stroke:#000000;stroke-width:2;stroke-linecap:round;stroke-linejoin:round;stroke-miterlimit:10;" x1="16.583" y1="42.309" x2="22.398" y2="46.349"/>
<line style="fill:none;stroke:#000000;stroke-width:2;stroke-linecap:round;stroke-linejoin:round;stroke-miterlimit:10;" x1="17.358" y1="55.2" x2="22.184" y2="53.249"/>
<line style="fill:none;stroke:#000000;stroke-width:2;stroke-linecap:round;stroke-linejoin:round;stroke-miterlimit:10;" x1="38.003" y1="83.007" x2="39.317" y2="79.033"/>
<line style="fill:none;stroke:#000000;stroke-width:2;stroke-linecap:round;stroke-linejoin:round;stroke-miterlimit:10;" x1="43.021" y1="83.021" x2="43.474" y2="77.901"/>
<path style="fill:none;stroke:#000000;stroke-width:2;stroke-linecap:round;stroke-linejoin:round;stroke-miterlimit:10;" d="
	M47.439,45.758l6.643-0.22l0.34,3.426c0,0,4.466-4.061,8.273-3.675c3.807,0.386,7.067,2.965,7.656,7.011
	c0.589,4.047,0.409,17.703,0.409,17.703l-7.17,0.035c0,0,0.158-13.503-0.555-15.574c-1.418-4.12-7.782-3.225-8.26,1.316
	c-0.215,2.041,0.097,14.581,0.097,14.581l-8.204-0.2L47.439,45.758z"/>
<path style="fill:none;stroke:#000000;stroke-width:2;stroke-linecap:round;stroke-linejoin:round;stroke-miterlimit:10;" d="
	M38.194,34.066c-1.438,0.145-5.263,2.103-4.57,4.784c0.693,2.682,2.656,3.771,4.854,3.736c2.198-0.035,4.133-1.805,3.772-4.605
	C41.89,35.182,39.631,33.921,38.194,34.066z"/>
<polygon style="fill:none;stroke:#000000;stroke-width:2;stroke-linecap:round;stroke-linejoin:round;stroke-miterlimit:10;" points="
	41.682,45.744 34.532,45.51 34.123,70.755 42.236,70.045 "/>
</svg>